PathFileType	4	(X/Y/Z)	/home/abdul/Desktop/myosuite/custom_workspace/IK/output/S5_12_2.trc
DataRate	CameraRate	NumFrames	NumMarkers	Units	OrigDataRate	OrigDataStartFrame	OrigNumFrames
200.0	200.0	56	3	mm	200.0	1048	1396
Frame#	Time	V_Shoulder			V_Elbow			V_Wrist		
		X1	Y1	Z1	X2	Y2	Z2	X3	Y3	Z3

1048	5.235	2.4587157350987106	739.4984453127696	255.11428925728296	-129.25511992541425	554.218989359669	42.330443438903515	-36.91851728150035	331.544382375337	66.35957047217164
1049	5.24	2.4305127460801974	739.4653967407748	255.09904611406913	-129.3562421327763	554.4393285543962	42.1526787156795	-37.37620867339482	331.6468109179224	66.8355991194899
1050	5.245	2.402122270707739	739.4305402894944	255.0833539192037	-129.45695264937893	554.6583916068928	41.97191975993767	-37.85556990280811	331.7407192214114	67.32441554544417
1051	5.25	2.37354249849673	739.3939041866105	255.0671987048253	-129.55728525125687	554.8758993591025	41.788476781000284	-38.357123419613075	331.82565756990937	67.82524498921629
1052	5.255	2.3447710241410435	739.3555196084772	255.05056674499573	-129.65727916894332	555.0915660146113	41.60267547931101	-38.88136554215975	331.90117952123705	68.33726258465333
1053	5.26	2.315804810620891	739.3154205613914	255.03344456396266	-129.756978975849	555.305099852721	41.41485597189613	-39.42876431344755	331.96684340377385	68.8595945213308
1054	5.265	2.286640153902495	739.2736437562454	255.01581894427014	-129.85643445443722	555.5162039953632	41.22537163819261	-39.999757403449145	332.02221384845797	69.39131940688335
1055	5.27	2.2572726494205897	739.2302284770934	254.99767693477725	-129.95570043972344	555.7245772245095	41.0345878900651	-40.59475006499367	332.0668633502414	69.93146982965105
1056	5.275	2.227697160532076	739.1852164441719	254.97900585864542	-130.0548366397115	555.929914847401	40.84288087027638	-41.21411315046178	332.1003738529955	70.47903411974865
1057	5.28	2.197907789125631	739.1386516719375	254.9597933213578	-130.15390743247067	556.1319096065881	40.65063608410345	-41.858181196366026	332.12233835157565	71.03295830571261
1058	5.285	2.1678978485677365	739.0905803226846	254.94002721883268	-130.25298163965806	556.3302526314521	40.45824696920369	-42.527250582688794	332.1323625044986	71.59214826292282
1059	5.29	2.137659839160417	739.0410505563259	254.91969574569399	-130.3521322763988	556.5246344275786	40.26611340922808	-43.22157777362747	332.1300662504585	72.15547204903675
1060	5.295	2.1071854262799787	738.9901123769163	254.8987874037617	-130.45143627755078	556.7147459000576	40.07464019704956	-43.94137764615419	332.11508542170486	72.72176242072047
1061	5.3	2.0764654213592304	738.9378174765064	254.87729101082155	-130.55097420050237	556.9002794065184	39.884235453821134	-44.6868219125364	332.08707334714194	73.28981952501692
1062	5.305	2.045489765868059	738.884219076917	254.85519570973426	-130.65082990477973	557.0809298354513	39.69530901039821	-45.458037642686236	332.0457024378735	73.85841375776505
1063	5.31	2.014247518438843	738.8293717700161	254.83249097793953	-130.75109020887214	557.2563957051359	39.508270757950314	-46.25510589191162	331.9906657478198	74.42628878057735
1064	5.315	1.9827268452740354	738.7733313570847	254.80916663740877	-130.85184452482207	557.426380278293	39.32352897484653	-47.0780604393329	331.9216785019713	74.99216468700565
1065	5.32	1.9509150139633469	738.7161546878455	254.78521286509525	-130.9531844712679	557.5905926873866	39.14148863712482	-47.92688664190519	331.8384795848216	75.55474130767922
1066	5.325	1.9187983908273498	738.6578994997213	254.76062020392715	-131.05520346577126	557.7487490653535	38.96254972004595	-48.80152040865077	331.7408329815362	76.11270164339246
1067	5.33	1.8863624418930416	738.598624257883	254.73537957438305	-131.1579962974073	557.9005736764007	38.78710549838595	-49.70184729935857	331.6285291644707	76.66471541435602
1068	5.335	1.8535917375949371	738.5383879966236	254.7094822866849	-131.26165868074355	558.0458000414176	38.61554085323623	-50.62770175164983	331.501386417747	77.20944271311053
1069	5.34	1.820469961282762	738.4772501625943	254.6829200536364	-131.36628679247974	558.184172052476	38.448230593155145	-51.57886643994194	331.3592520927343	77.74553774794077
1070	5.345	1.786979921603642	738.4152704604063	254.65568500412874	-131.47197679216686	558.3154450708522	38.285537797549416	-52.55507176946681	331.2020037874578	78.27165266302563
1071	5.35	1.753103568813069	738.3525087010962	254.62776969732832	-131.57882432856763	558.4393870029959	38.12781219015639	-53.555995508117036	331.029550443178	78.78644142101808
1072	5.355	1.718822015054803	738.2890246539183	254.5991671375533	-131.6869240333604	558.5557793488987	37.975388550448386	-54.58126255850321	330.8418333516434	79.2885637332758
1073	5.36	1.684115558635323	738.2248779019201	254.569870789838	-131.79636900402392	558.6644182173653	37.82858517068872	-55.63044487220991	330.63882706681517	79.7766890225586
1074	5.365	1.6489637123034921	738.1601277017162	254.53987459617568	-131.90725027787	558.7651153027814	37.68770236623438	-56.703061507837475	330.4205402152029	80.24950040267802
1075	5.37	1.6133452355308953	738.0948328478652	254.50917299242101	-132.01965629931382	558.8576988180897	37.553021046503986	-57.7985788340111	330.187016199323	80.70569865932896
1076	5.375	1.5772381707727867	738.029051542219	254.47776092582498	-132.13367238258706	558.9420143788416	37.42480135381112	-58.91641087812985	329.9383337892043	81.1440062161566
1077	5.38	1.5406198836738971	737.9628412685852	254.44563387316484	-132.24938017220282	559.0179258333653	37.303281377004666	-60.055919821216484	329.6746075973089	81.56317107001442
1078	5.385	1.503467107167501	737.8962586730204	254.41278785942305	-132.36685710357852	559.0853160343133	37.18867594655832	-61.21641663881411	329.39598843271506	81.96197067935393
1079	5.39	1.4657559894002308	737.8293594500359	254.3792194769585	-132.48617586630547	559.1440875470848	37.08117551741461	-62.39716188745973	329.10266353091504	82.33921578975253
1080	5.395	1.4274621453992122	737.7621982349718	254.3449259051034	-132.6074038726265	559.1941632908934	36.98094514551463	-63.59736663584707	328.7948566561176	82.6937541807348
1081	5.4	1.3885607123822215	737.6948285027607	254.3099049301103	-132.73060273374156	559.2354871085408	36.88812356353553	-64.81619353937275	328.4728280735025	83.0244743182734
1082	5.405	1.3490264085958037	737.6273024732722	254.27415496536332	-132.85582774660597	559.2680242612848	36.80282236091581	-66.0527580563423	328.13687438945885	83.33030889766815
1083	5.41	1.308833595550764	737.5596710233987	254.2376750717568	-132.9831273939167	559.2917618455235	36.72512527277594	-67.30612980369486	327.7873282584375	83.61023826189376
1084	5.415	1.2679563435091021	737.4919836060116	254.2004649781368	-133.11254285999655	559.3067091283931	36.65508758184088	-68.57533404968905	327.42455795566684	83.86329368097824
1085	5.42	1.2263685000615305	737.4242881758797	254.16252510169102	-133.2441075652861	559.3128977997519	36.59273563694502	-69.85935334057946	327.0489668156072	84.0885604785199
1086	5.425	1.1840437616201127	737.3566311226231	254.12385656816218	-133.37784672213604	559.310382138429	36.5380664911512	-71.15712925790179	326.660992536659	84.28518099207133
1087	5.43	1.1409557476364383	737.2890572107267	254.0844612317534	-133.51377691455895	559.2992390910276	36.49104766194732	-72.46756430257757	326.2611063532822	84.45235735480958
1088	5.435	1.097078077342158	737.2216095266285	254.044341694585	-133.65190570455022	559.2795682620088	36.45161701539936	-73.7895239016471	325.84981207732574	84.58935408666677
1089	5.44	1.0523844487956968	737.1543294328468	254.00350132555323	-133.79223126752052	559.2514918142068	36.41968277554183	-75.1218385330426	325.42764501101277	84.69550048391577
1090	5.445	1.0068487200065828	737.0872565290982	253.96194427843616	-133.93474205929928	559.2151542793861	36.395123659679534	-76.46330596342325	324.9951707346577	84.77019279708068
1091	5.45	0.9604449918972158	737.0204286203219	253.91967550908393	-134.07941651706767	559.1707222788878	36.37778913966058	-77.8126935937117	324.55298377281935	84.81289618797243
1092	5.455	0.9131476928509822	736.9538816915009	253.87670079152497	-134.2262227964648	559.118384154874	36.36749982856436	-79.1687409065989	324.10170614320805	84.82314645762595
1093	5.46	0.8649316645856051	736.8876498891458	253.83302673281568	-134.37511854697817	559.0583495131233	36.364047991632546	-80.53016200992079	323.64198579325523	84.80055153793518
1094	5.465	0.8157722490814119	736.8217655092808	253.78866078645513	-134.5260507275811	558.9908486787835	36.36719817965949	-81.89564826945943	323.17449492983167	84.74479274083765
1095	5.47	0.7656453762859773	736.7562589917505	253.74361126418376	-134.67895546442006	558.9161320669243	36.376687982455124	-83.26387102438332	322.6999282481469	84.65562575998689
1096	5.475	0.714527652309295	736.6911589206416	253.69788734598293	-134.83375795217748	558.8344694701715	36.39222889940052	-84.63348437821745	322.2190010663861	84.53288142096115
1097	5.48	0.6623964478173846	736.6264920305975	253.65149908808976	-134.99037240054773	558.7461492661214	36.41350732353878	-86.0031280579263	321.7324473731286	84.37646617718579
1098	5.485	0.6092299863270353	736.5622832187825	253.60445742884227	-135.1487020270629	558.6514775476485	36.440185635083296	-87.37143033340317	321.2410177950487	84.18636234988753
1099	5.49	0.5550074321002455	736.4985555622346	253.5567741921692	-135.30863909729425	558.550777179606	36.47190339968689	-88.73701098938778	320.74547749282044	83.96262811154392
1100	5.495	0.4997089773339199	736.4353303403328	253.50846208854213	-135.47006501323352	558.4443867857983	36.50827866629957	-90.09848434158418	320.246603993524	83.70539721343692
1101	5.5	0.44331592833850336	736.372627062094	253.4595347132091	-135.63285045042863	558.3326596704571	36.54890935895494	-91.45446228852205	319.74518496819127	83.41487845905633
1102	5.505	0.3858107903985637	736.3104634979941	253.41000654153368	-135.79685554421255	558.2159626787832	36.59337475636638	-92.80355739050175	319.2420159634206	83.09135492622302
1103	5.51	0.3271773510087705	736.248855716009	253.35989292126808	-135.96193012512038	558.0946750014263	36.641237052787574	-94.1443859667831	318.7378980962378	82.73518294190589
